<svg id="icon" xmlns="http://www.w3.org/2000/svg" xmlns:xlink="http://www.w3.org/1999/xlink" width="40" height="40" viewBox="0 0 40 40">
  <defs>
    <style>
      .cls-1 {
        fill: #666;
      }

      .cls-2 {
        fill: #fbfbfb;
      }

      .cls-3 {
        clip-path: url(#clip-path);
      }
    </style>
    <clipPath id="clip-path">
      <rect id="矩形_157" data-name="矩形 157" class="cls-1" width="24.479" height="20"/>
    </clipPath>
  </defs>
  <rect id="矩形_71" data-name="矩形 71" class="cls-2" width="40" height="40" rx="6"/>
  <g id="组_68" data-name="组 68" transform="translate(368 294)">
    <g id="组_67" data-name="组 67" transform="translate(-360 -284)">
      <g id="组_66" data-name="组 66" class="cls-3" transform="translate(0 0)">
        <path id="路径_3638" data-name="路径 3638" class="cls-1" d="M-336.423-109.847h-22.931a.765.765,0,0,1-.557-.24.764.764,0,0,1-.207-.57.764.764,0,0,1,.764-.764h22.931a.765.765,0,0,1,.541.224.764.764,0,0,1,.224.54.764.764,0,0,1-.207.57.765.765,0,0,1-.557.24Zm-12.994-13.7h-3.944a.78.78,0,0,1-.764-.764.764.764,0,0,1,.764-.764h3.944a.764.764,0,0,1,.764.764.78.78,0,0,1-.764.764Zm0,4.54h-3.944a.764.764,0,0,1-.764-.764.78.78,0,0,1,.764-.764h3.944a.78.78,0,0,1,.764.764.764.764,0,0,1-.764.764Zm0,0" transform="translate(360.116 129.818)"/>
      </g>
    </g>
    <path id="路径_3639" data-name="路径 3639" class="cls-1" d="M-264.163-263.827a.78.78,0,0,1-.764-.764v-11.328a.764.764,0,0,1,.764-.764.764.764,0,0,1,.764.764v11.282a.764.764,0,0,1-.207.57.765.765,0,0,1-.557.24Zm-7-18.436h-11.343a.764.764,0,0,1-.764-.764.764.764,0,0,1,.764-.764h11.343a.779.779,0,0,1,.764.764.764.764,0,0,1-.764.764Zm0,0" transform="translate(-74.437 -0.202)"/>
    <path id="路径_3640" data-name="路径 3640" class="cls-1" d="M-264.163-273.666h-3.21a.78.78,0,0,1-.764-.764.764.764,0,0,1,.764-.764h3.21a.764.764,0,0,1,.764.764.764.764,0,0,1-.764.764Zm-6.971,11.328a.78.78,0,0,1-.764-.764v-18.39a.78.78,0,0,1,.764-.764.764.764,0,0,1,.764.764v18.345a.764.764,0,0,1-.207.57.765.765,0,0,1-.557.24Zm-11.374,0a.764.764,0,0,1-.764-.764v-18.39a.764.764,0,0,1,.764-.764.78.78,0,0,1,.764.764v18.345a.779.779,0,0,1-.212.566.78.78,0,0,1-.552.244Zm0,0" transform="translate(-74.437 -1.691)"/>
  </g>
</svg>
