<svg id="icon" xmlns="http://www.w3.org/2000/svg" xmlns:xlink="http://www.w3.org/1999/xlink" width="40" height="40" viewBox="0 0 40 40">
  <defs>
    <style>
      .cls-1 {
        fill: #666;
      }

      .cls-2 {
        fill: #fbfbfb;
      }

      .cls-3 {
        clip-path: url(#clip-path);
      }
    </style>
    <clipPath id="clip-path">
      <rect id="矩形_87" data-name="矩形 87" class="cls-1" width="22.842" height="20"/>
    </clipPath>
  </defs>
  <rect id="矩形_71" data-name="矩形 71" class="cls-2" width="40" height="40" rx="6"/>
  <g id="学院" transform="translate(9 10)">
    <g id="组_40" data-name="组 40">
      <g id="组_39" data-name="组 39" class="cls-3" transform="translate(0 0)">
        <path id="路径_17" data-name="路径 17" class="cls-1" d="M-348.708-296.619a.9.9,0,0,1-.35-.082l-10.579-4.843a.81.81,0,0,1-.483-.741.81.81,0,0,1,.483-.741l10.579-4.842a.863.863,0,0,1,.7,0l10.579,4.842a.81.81,0,0,1,.483.741.81.81,0,0,1-.483.741l-10.579,4.842a.684.684,0,0,1-.35.084Zm-8.6-5.666,8.6,3.936,8.6-3.936-8.6-3.936Zm0,0" transform="translate(360.117 307.944)"/>
      </g>
    </g>
    <path id="路径_18" data-name="路径 18" class="cls-1" d="M285.538,110.891a.815.815,0,0,1-.823-.823v-2.354a.823.823,0,0,1,1.647,0v2.354a.826.826,0,0,1-.823.823Zm0,0" transform="translate(-266.752 -95.331)"/>
    <path id="路径_19" data-name="路径 19" class="cls-1" d="M-243.458-44.291a.815.815,0,0,1-.585-.239.815.815,0,0,1-.239-.584v-6.8a.823.823,0,0,1,.823-.823.823.823,0,0,1,.823.823V-45.1a.822.822,0,0,1-.823.807Zm0,0" transform="translate(247.506 59.851)"/>
    <path id="路径_20" data-name="路径 20" class="cls-1" d="M-236.084,200.434a10.4,10.4,0,0,1-5.674-1.746c-1.557-1.054-2.51-2.354-2.51-3.409a.837.837,0,0,1,.837-.82.837.837,0,0,1,.837.82c0,.84,2.71,3.508,6.526,3.508s6.526-2.668,6.526-3.508a.837.837,0,0,1,.837-.82.837.837,0,0,1,.837.82c0,1.054-.971,2.354-2.51,3.409a10.5,10.5,0,0,1-5.706,1.746Zm0,0" transform="translate(247.492 -180.461)"/>
  </g>
</svg>
