<svg xmlns="http://www.w3.org/2000/svg" width="40" height="40" viewBox="0 0 40 40">
  <defs>
    <style>
      .cls-1 {
        fill: #fbfbfb;
      }

      .cls-2 {
        fill: none;
        stroke: #297aff;
        stroke-width: 2px;
      }
    </style>
  </defs>
  <g id="组_376" data-name="组 376" transform="translate(-1217 -2242)">
    <rect id="矩形_171" data-name="矩形 171" class="cls-1" width="40" height="40" rx="6" transform="translate(1217 2242)"/>
    <g id="组_365" data-name="组 365" transform="translate(1536 2559)">
      <g id="组_69" data-name="组 69" transform="translate(-309 -307)">
        <path id="路径_3641" data-name="路径 3641" class="cls-2" d="M-289.829-306.171c-1.9-1.9-8.578.054-8.578.054l-10.469,10.469a.423.423,0,0,0,0,.6l7.927,7.927a.423.423,0,0,0,.6,0l10.4-10.4.071-.071s1.95-6.682.054-8.578Zm-2.649,6.277a2.571,2.571,0,0,1-3.636,0,2.571,2.571,0,0,1,0-3.636,2.571,2.571,0,0,1,3.636,0,2.571,2.571,0,0,1,0,3.636Zm0,0" transform="translate(309 307)"/>
      </g>
    </g>
  </g>
</svg>
