<svg id="icon" xmlns="http://www.w3.org/2000/svg" width="40" height="40" viewBox="0 0 40 40">
  <defs>
    <style>
      .cls-1 {
        fill: #fbfbfb;
      }

      .cls-2 {
        fill: none;
        stroke: #707070;
        stroke-width: 2px;
      }
    </style>
  </defs>
  <path id="路径_7" data-name="路径 7" class="cls-1" d="M6,0H34a6,6,0,0,1,6,6V34a6,6,0,0,1-6,6H6a6,6,0,0,1-6-6V6A6,6,0,0,1,6,0Z"/>
  <g id="组_70" data-name="组 70" transform="translate(319 317)">
    <g id="组_69" data-name="组 69" transform="translate(-309 -307)">
      <path id="路径_3641" data-name="路径 3641" class="cls-2" d="M-289.829-306.171c-1.9-1.9-8.578.054-8.578.054l-10.469,10.469a.423.423,0,0,0,0,.6l7.927,7.927a.423.423,0,0,0,.6,0l10.4-10.4.071-.071s1.95-6.682.054-8.578Zm-2.649,6.277a2.571,2.571,0,0,1-3.636,0,2.571,2.571,0,0,1,0-3.636,2.571,2.571,0,0,1,3.636,0,2.571,2.571,0,0,1,0,3.636Zm0,0" transform="translate(309 307)"/>
    </g>
  </g>
</svg>
