<svg xmlns="http://www.w3.org/2000/svg" xmlns:xlink="http://www.w3.org/1999/xlink" width="40" height="40" viewBox="0 0 40 40">
  <defs>
    <style>
      .cls-1 {
        fill: #297aff;
      }

      .cls-2 {
        fill: #fbfbfb;
      }

      .cls-3 {
        clip-path: url(#clip-path);
      }
    </style>
    <clipPath id="clip-path">
      <rect id="矩形_76" data-name="矩形 76" class="cls-1" width="22.577" height="18"/>
    </clipPath>
  </defs>
  <g id="组_371" data-name="组 371" transform="translate(-1219 -1944)">
    <rect id="矩形_166" data-name="矩形 166" class="cls-2" width="40" height="40" rx="6" transform="translate(1219 1944)"/>
    <g id="youxiang" transform="translate(1228 1955)">
      <g id="组_21" data-name="组 21">
        <g id="组_20" data-name="组 20" class="cls-3" transform="translate(0 0)">
          <path id="路径_14" data-name="路径 14" class="cls-1" d="M-280.169-196.181a2.951,2.951,0,0,1-2.951-2.951v-12.035a2.95,2.95,0,0,1,2.951-2.951H-263.5a2.951,2.951,0,0,1,2.951,2.951v12.035a2.951,2.951,0,0,1-2.951,2.951Zm0-1.736H-263.5a1.215,1.215,0,0,0,1.215-1.215v-12.035a1.215,1.215,0,0,0-1.215-1.215h-16.665a1.215,1.215,0,0,0-1.215,1.215v12.035a1.215,1.215,0,0,0,1.215,1.215Zm0,0" transform="translate(283.116 214.149)"/>
        </g>
      </g>
      <path id="路径_15" data-name="路径 15" class="cls-1" d="M-262.157-96.778a.713.713,0,0,1-.492-.573.654.654,0,0,1,.386-.621,1.089,1.089,0,0,1,.878-.048l9.236,3.538a.664.664,0,0,0,.462,0l9.236-3.538a1.089,1.089,0,0,1,.878.048.653.653,0,0,1,.386.621.712.712,0,0,1-.492.573l-9.235,3.537a2.854,2.854,0,0,1-2.007,0Zm0,0" transform="translate(263.2 102.493)"/>
    </g>
  </g>
</svg>
