<svg xmlns="http://www.w3.org/2000/svg" width="40" height="40" viewBox="0 0 40 40">
  <defs>
    <style>
      .cls-1, .cls-4 {
        fill: #297aff;
      }

      .cls-2 {
        fill: #fff;
        stroke: #fff;
      }

      .cls-3, .cls-4 {
        stroke: none;
      }
    </style>
  </defs>
  <g id="组_363" data-name="组 363" transform="translate(-263 -489)">
    <g id="路径_3644" data-name="路径 3644" class="cls-1" transform="translate(263 489)">
      <path class="cls-3" d="M 34 39.5 L 6 39.5 C 2.967289924621582 39.5 0.5 37.03271102905273 0.5 34 L 0.5 6 C 0.5 2.967289924621582 2.967289924621582 0.5 6 0.5 L 34 0.5 C 37.03271102905273 0.5 39.5 2.967289924621582 39.5 6 L 39.5 34 C 39.5 37.03271102905273 37.03271102905273 39.5 34 39.5 Z"/>
      <path class="cls-4" d="M 6 1 C 3.242988586425781 1 1 3.242988586425781 1 6 L 1 34 C 1 36.75701141357422 3.242988586425781 39 6 39 L 34 39 C 36.75701141357422 39 39 36.75701141357422 39 34 L 39 6 C 39 3.242988586425781 36.75701141357422 1 34 1 L 6 1 M 6 0 L 34 0 C 37.3137092590332 0 40 2.686290740966797 40 6 L 40 34 C 40 37.3137092590332 37.3137092590332 40 34 40 L 6 40 C 2.686290740966797 40 0 37.3137092590332 0 34 L 0 6 C 0 2.686290740966797 2.686290740966797 0 6 0 Z"/>
    </g>
    <path id="female" class="cls-2" d="M31.752,8.525a7.784,7.784,0,1,0-15.568,0,7.857,7.857,0,0,0,6.94,7.784v2.011H19.881a.887.887,0,0,0-.908.908.835.835,0,0,0,.908.843h3.243v3.762a.908.908,0,0,0,1.816,0V20.071h3.243a.908.908,0,1,0,0-1.816H24.941V16.244a7.782,7.782,0,0,0,6.811-7.719Zm-13.816,0a6.033,6.033,0,1,1,6.033,6.033,6.063,6.063,0,0,1-6.033-6.033Zm0,0" transform="translate(259 496.598)"/>
  </g>
</svg>
