<svg xmlns="http://www.w3.org/2000/svg" width="40" height="40" viewBox="0 0 40 40">
  <defs>
    <style>
      .cls-1 {
        fill: #fbfbfb;
      }

      .cls-2 {
        fill: #297aff;
      }
    </style>
  </defs>
  <g id="组_373" data-name="组 373" transform="translate(-1217 -2059)">
    <rect id="矩形_168" data-name="矩形 168" class="cls-1" width="40" height="40" rx="6" transform="translate(1217 2059)"/>
    <g id="专业" transform="translate(1228 2069)">
      <path id="路径_21" data-name="路径 21" class="cls-2" d="M-216.378-250h-13.654A1.97,1.97,0,0,1-232-251.968v-16.064A1.97,1.97,0,0,1-230.032-270h13.654a1.97,1.97,0,0,1,1.968,1.968v16.064A1.97,1.97,0,0,1-216.378-250Zm-13.654-18.4a.374.374,0,0,0-.369.369v16.064a.374.374,0,0,0,.369.369h13.654a.374.374,0,0,0,.369-.369v-16.064a.374.374,0,0,0-.369-.369Zm0,0" transform="translate(232 270)"/>
      <path id="路径_22" data-name="路径 22" class="cls-2" d="M-206.4-251.766h15.227v1.6H-206.4Zm2.6-5.071a.8.8,0,0,1-.8-.8V-266.7a.8.8,0,0,1,.8-.8.8.8,0,0,1,.8.8v9.068a.8.8,0,0,1-.8.8Zm0,0" transform="translate(207.197 267.582)"/>
      <path id="路径_23" data-name="路径 23" class="cls-2" d="M-147.769-257.939a.8.8,0,0,1-.615-.288.8.8,0,0,1,.1-1.126l2.88-2.4a.8.8,0,0,1,1.126.1.8.8,0,0,1-.1,1.126l-2.88,2.4a.8.8,0,0,1-.511.185Zm5.727-.191a.8.8,0,0,1-.8-.8V-268a.8.8,0,0,1,.8-.8.8.8,0,0,1,.8.8v9.068a.8.8,0,0,1-.8.8Zm0,0" transform="translate(151.174 268.835)"/>
      <path id="路径_24" data-name="路径 24" class="cls-2" d="M-53.872-46.408a.8.8,0,0,1-.511-.185l-2.88-2.4a.8.8,0,0,1-.1-1.126.8.8,0,0,1,1.126-.1l2.88,2.4a.8.8,0,0,1,.1,1.126.8.8,0,0,1-.615.288Zm0,0" transform="translate(62.998 57.263)"/>
    </g>
  </g>
</svg>
