<svg xmlns="http://www.w3.org/2000/svg" width="40" height="40" viewBox="0 0 40 40">
  <defs>
    <style>
      .cls-1, .cls-4 {
        fill: #297aff;
      }

      .cls-2 {
        fill: #fff;
        stroke: #fff;
      }

      .cls-3, .cls-4 {
        stroke: none;
      }
    </style>
  </defs>
  <g id="组_366" data-name="组 366" transform="translate(-263 -436)">
    <g id="路径_3646" data-name="路径 3646" class="cls-1" transform="translate(263 436)">
      <path class="cls-3" d="M 34 39.5 L 6 39.5 C 2.967289924621582 39.5 0.5 37.03271102905273 0.5 34 L 0.5 6 C 0.5 2.967289924621582 2.967289924621582 0.5 6 0.5 L 34 0.5 C 37.03271102905273 0.5 39.5 2.967289924621582 39.5 6 L 39.5 34 C 39.5 37.03271102905273 37.03271102905273 39.5 34 39.5 Z"/>
      <path class="cls-4" d="M 6 1 C 3.242988586425781 1 1 3.242988586425781 1 6 L 1 34 C 1 36.75701141357422 3.242988586425781 39 6 39 L 34 39 C 36.75701141357422 39 39 36.75701141357422 39 34 L 39 6 C 39 3.242988586425781 36.75701141357422 1 34 1 L 6 1 M 6 0 L 34 0 C 37.3137092590332 0 40 2.686290740966797 40 6 L 40 34 C 40 37.3137092590332 37.3137092590332 40 34 40 L 6 40 C 2.686290740966797 40 0 37.3137092590332 0 34 L 0 6 C 0 2.686290740966797 2.686290740966797 0 6 0 Z"/>
    </g>
    <path id="male" class="cls-2" d="M29.746,9.529V4.045L32.391,6.69a.98.98,0,0,0,1.29,0,.98.98,0,0,0,0-1.29L29.488,1.206c-.129-.065-.194-.129-.323-.194a.836.836,0,0,0-.645,0,.887.887,0,0,0-.258.194L24,5.4a.98.98,0,0,0,0,1.29.98.98,0,0,0,1.29,0L27.94,4.045V9.464a8.031,8.031,0,1,0,1.807.064Zm-.9,13.677a6,6,0,1,1,6-6,6.03,6.03,0,0,1-6,6Zm0,0" transform="translate(254 442.598)"/>
  </g>
</svg>
