<svg xmlns="http://www.w3.org/2000/svg" width="40" height="40" viewBox="0 0 40 40">
  <defs>
    <style>
      .cls-1 {
        fill: #fbfbfb;
        stroke: #707070;
      }

      .cls-2 {
        fill: #666;
      }

      .cls-3 {
        stroke: none;
      }

      .cls-4 {
        fill: none;
      }
    </style>
  </defs>
  <g id="male" transform="translate(-263 -520)">
    <g id="矩形_161" data-name="矩形 161" class="cls-1" transform="translate(263 520)">
      <rect class="cls-3" width="40" height="40" rx="6"/>
      <rect class="cls-4" x="0.5" y="0.5" width="39" height="39" rx="5.5"/>
    </g>
    <path id="male-2" data-name="male" class="cls-2" d="M29.746,9.529V4.045L32.391,6.69a.98.98,0,0,0,1.29,0,.98.98,0,0,0,0-1.29L29.488,1.206c-.129-.065-.194-.129-.323-.194a.836.836,0,0,0-.645,0,.887.887,0,0,0-.258.194L24,5.4a.98.98,0,0,0,0,1.29.98.98,0,0,0,1.29,0L27.94,4.045V9.464a8.031,8.031,0,1,0,1.807.064Zm-.9,13.677a6,6,0,1,1,6-6,6.03,6.03,0,0,1-6,6Zm0,0" transform="translate(254 526.598)"/>
  </g>
</svg>
