<svg xmlns="http://www.w3.org/2000/svg" width="40" height="40" viewBox="0 0 40 40">
  <g id="组_366" data-name="组 366" transform="translate(-1202 -1609)">
    <rect id="矩形_162" data-name="矩形 162" width="40" height="40" rx="6" transform="translate(1202 1609)" fill="#fbfbfb"/>
    <path id="路径_4" data-name="路径 4" d="M13.132,23.237a7.693,7.693,0,0,1,15.385,0H26.594a5.77,5.77,0,0,0-11.539,0Zm7.692-8.571a5.715,5.715,0,1,1,5.769-5.714,5.74,5.74,0,0,1-5.769,5.714Zm0-1.9a3.81,3.81,0,1,0-3.846-3.809,3.827,3.827,0,0,0,3.846,3.809Zm0,0" transform="translate(1200.868 1615.763)" fill="#297aff"/>
  </g>
</svg>
