<svg xmlns="http://www.w3.org/2000/svg" width="40" height="40" viewBox="0 0 40 40">
  <defs>
    <style>
      .cls-1 {
        fill: #fbfbfb;
      }

      .cls-2 {
        fill: #297aff;
      }
    </style>
  </defs>
  <g id="组_370" data-name="组 370" transform="translate(-1219 -1888)">
    <rect id="矩形_165" data-name="矩形 165" class="cls-1" width="40" height="40" rx="6" transform="translate(1219 1888)"/>
    <path id="路径_3645" data-name="路径 3645" class="cls-2" d="M-248.96-245.279a1.014,1.014,0,0,0,.508.406,1.162,1.162,0,0,0,1.22.2l1.016-1.525c.2-.2.407-.3.61-.508a1.469,1.469,0,0,1,.711-.2c.2-.1.508,0,.711,0h.1a2.128,2.128,0,0,1,.61.407l3.761,2.948h.1a2.126,2.126,0,0,1,.407.61,1.885,1.885,0,0,1,.2.711,1.981,1.981,0,0,1-.1.813,1.822,1.822,0,0,1-.508.711,3.549,3.549,0,0,1-.915.61v.1a4.4,4.4,0,0,1-1.22.508,10.182,10.182,0,0,1-6.5-.1c-.2-.1-.508-.2-.711-.3v-1.626c.407.1.813.3,1.22.407a8.5,8.5,0,0,0,5.489.2,3.984,3.984,0,0,0,.915-.407l.1-.1c.2-.1.407-.3.61-.406,0-.1.1-.1.1-.2v-.2a.1.1,0,0,0-.1-.1v-.1l-3.761-2.947h-.407a.1.1,0,0,0-.1.1l-1.22,1.626a.218.218,0,0,1-.2.2,2.762,2.762,0,0,1-2.643.1Zm-5.387-13.01,2.948,3.761v.1l.3.61c0,.2.1.508,0,.711a1.469,1.469,0,0,1-.2.711v.1l-.508.508h-.1l-1.423,1.016a1.162,1.162,0,0,0,.2,1.22,12.874,12.874,0,0,0,2.134,2.541,16.592,16.592,0,0,0,2.033,1.728v1.931c-.1-.1-.3-.2-.406-.3a20.182,20.182,0,0,1-2.744-2.236,14.657,14.657,0,0,1-2.236-2.744,2.6,2.6,0,0,1-.2-3.049c0-.1.1-.1.2-.2l1.525-1.118.1-.1h.1v-.407l-2.947-3.862c-.1,0-.1,0-.1-.1h-.3c-.1,0-.1.1-.2.1-.1.2-.3.407-.406.61a3.18,3.18,0,0,0-.508,1.017,8.5,8.5,0,0,0,.2,5.488,13.8,13.8,0,0,0,3.557,5.59,14.5,14.5,0,0,0,4.371,3.151v1.626a17.9,17.9,0,0,1-5.489-3.659,18.42,18.42,0,0,1-3.964-6.2,10.183,10.183,0,0,1-.1-6.5,6.777,6.777,0,0,1,.61-1.22,3.548,3.548,0,0,1,.61-.915,1.822,1.822,0,0,1,.711-.508h.1a1.507,1.507,0,0,1,.711-.1,1.47,1.47,0,0,1,.711.2h.1Zm0,0,0,0,0,0" transform="translate(1488 2157)"/>
  </g>
</svg>
