<svg xmlns="http://www.w3.org/2000/svg" width="40" height="40" viewBox="0 0 60 60">
  <g id="icon" transform="translate(-32.74)">
    <rect id="矩形_71" data-name="矩形 71" width="60" height="60" rx="6" transform="translate(32.74)" fill="#fbfbfb"/>
    <path id="密码" d="M9.845,10V8.571C9.845,3.837,13.289,0,17.537,0S25.23,3.837,25.23,8.571V10h2.564a1.361,1.361,0,0,1,1.282,1.429V28.571A1.361,1.361,0,0,1,27.794,30H7.281A1.361,1.361,0,0,1,6,28.571V11.428a1.517,1.517,0,0,1,.375-1.01A1.22,1.22,0,0,1,7.281,10Zm16.667,2.857H8.563V27.143H26.512ZM16.255,21.046a3,3,0,0,1-1.195-3.214,2.627,2.627,0,0,1,2.477-2.118,2.627,2.627,0,0,1,2.477,2.118,3,3,0,0,1-1.195,3.214v3.24H16.255ZM12.409,10H22.666V8.571c0-3.156-2.3-5.714-5.128-5.714s-5.128,2.558-5.128,5.714Zm0,0" transform="translate(44.741 15)" fill="#297aff"/>
  </g>
</svg>
