<svg id="icon" xmlns="http://www.w3.org/2000/svg" width="40" height="40" viewBox="0 0 40 40">
  <defs>
    <style>
      .cls-1 {
        fill: #fbfbfb;
      }

      .cls-2 {
        fill: #297aff;
      }
    </style>
  </defs>
  <rect id="矩形_71" data-name="矩形 71" class="cls-1" width="40" height="40" rx="6"/>
  <path id="密码" class="cls-2" d="M8.563,6.667V5.714C8.563,2.558,10.859,0,13.691,0S18.82,2.558,18.82,5.714v.952h1.709a.908.908,0,0,1,.855.952V19.048a.908.908,0,0,1-.855.952H6.854A.908.908,0,0,1,6,19.048V7.619a1.011,1.011,0,0,1,.25-.673.814.814,0,0,1,.6-.279Zm11.111,1.9H7.708V18.1H19.674ZM12.837,14.03a2,2,0,0,1-.8-2.142,1.671,1.671,0,0,1,3.3,0,2,2,0,0,1-.8,2.142v2.16H12.837ZM10.273,6.667H17.11V5.714A3.63,3.63,0,0,0,13.691,1.9a3.63,3.63,0,0,0-3.419,3.809Zm0,0" transform="translate(6.001 10)"/>
</svg>
