<svg xmlns="http://www.w3.org/2000/svg" width="40" height="40" viewBox="0 0 40 40">
  <defs>
    <style>
      .cls-1 {
        fill: #fbfbfb;
      }

      .cls-2 {
        fill: #297aff;
      }
    </style>
  </defs>
  <g id="组_369" data-name="组 369" transform="translate(-1214 -1820)">
    <rect id="矩形_164" data-name="矩形 164" class="cls-1" width="40" height="40" rx="6" transform="translate(1214 1820)"/>
    <path id="路径_3644" data-name="路径 3644" class="cls-2" d="M-256.186-287.914a2.529,2.529,0,0,1,.1.714c0,1.854-1.944,3.2-4.622,3.2a5.933,5.933,0,0,1-3.2-.831,5.934,5.934,0,0,1-3.2.831c-2.678,0-4.622-1.346-4.622-3.2a2.533,2.533,0,0,1,.1-.715c-1.571-.8-1.643-3.258-1.005-5.313a6.675,6.675,0,0,1,1.26-2.27,3.892,3.892,0,0,1,.4-1.555A7.112,7.112,0,0,1-263.9-304a7.111,7.111,0,0,1,7.067,6.93,3.891,3.891,0,0,1,.408,1.593,6.657,6.657,0,0,1,1.244,2.249c.638,2.056.566,4.514-1.007,5.314Zm-.734-4.774a5.141,5.141,0,0,0-1.388-2.142,2.062,2.062,0,0,0,.072-.511,2.244,2.244,0,0,0-.42-1.274c0-.081.014-.161.014-.243a5.292,5.292,0,0,0-5.259-5.323,5.292,5.292,0,0,0-5.259,5.323c0,.086.01.169.015.254a2.239,2.239,0,0,0-.413,1.263,2.063,2.063,0,0,0,.069.5,5.149,5.149,0,0,0-1.4,2.153c-.471,1.517-.33,3.015.149,3.179.309.105.74-.319,1.133-1.039a5.923,5.923,0,0,0,1.328,2.1c-.959.22-1.627.695-1.627,1.25,0,.763,1.255,1.381,2.8,1.381a3.606,3.606,0,0,0,2.565-.827,6.218,6.218,0,0,0,.637.036,6.217,6.217,0,0,0,.63-.036,3.607,3.607,0,0,0,2.564.826c1.548,0,2.8-.618,2.8-1.381,0-.554-.666-1.028-1.621-1.248a5.925,5.925,0,0,0,1.327-2.094c.393.716.821,1.138,1.13,1.033.479-.163.62-1.661.149-3.179Zm0,0" transform="translate(1498 2134)"/>
  </g>
</svg>
