<svg xmlns="http://www.w3.org/2000/svg" width="46" height="30" viewBox="0 0 46 30">
  <defs>
    <style>
      .cls-1 {
        fill: #297aff;
      }
    </style>
  </defs>
  <g id="logo" transform="translate(-2.771 -16)">
    <path id="SVGID" class="cls-1" d="M58.165,36.912c0,4.184-2.928,8.223-6.729,9.06a1.217,1.217,0,0,1-.259.028H22a1.258,1.258,0,0,1,0-2.515H51.039c2.571-.641,4.668-3.58,4.668-6.573a6.107,6.107,0,0,0-5.195-6.1,1.258,1.258,0,0,1-.995-1.664,8.151,8.151,0,0,0,.441-2.654A7.765,7.765,0,0,0,34.718,24.19a1.233,1.233,0,0,1-1.177.9H25.222a1.258,1.258,0,0,1,0-2.515h7.449a10.252,10.252,0,0,1,9.5-6.57A10.372,10.372,0,0,1,52.417,26.5a10.771,10.771,0,0,1-.212,2.133A8.653,8.653,0,0,1,58.165,36.912Z" transform="translate(-9.394)"/>
    <path id="SVGID-2" data-name="SVGID" class="cls-1" d="M12.048,43.252a1.258,1.258,0,0,1,0-2.515H32.882a1.258,1.258,0,0,1,0,2.515ZM4,43.251a1.258,1.258,0,0,1,0-2.515H9.233a1.258,1.258,0,0,1,0,2.515Z" transform="translate(0 -12.7)"/>
    <path id="SVGID-3" data-name="SVGID" class="cls-1" d="M31.189,53.4a1.258,1.258,0,0,1,0-2.515h2.023a1.258,1.258,0,0,1,0,2.515Zm-19.66,0a1.258,1.258,0,0,1,0-2.515H28.382a1.258,1.258,0,0,1,0,2.515Z" transform="translate(-3.93 -17.912)"/>
    <path id="SVGID-4" data-name="SVGID" class="cls-1" d="M6.387,63.279a1.258,1.258,0,0,1,0-2.515H32.908a1.258,1.258,0,0,1,0,2.515Z" transform="translate(-1.246 -22.983)"/>
  </g>
</svg>
