<svg xmlns="http://www.w3.org/2000/svg" width="18.75" height="20" viewBox="0 0 18.75 20">
  <defs>
    <style>
      .cls-1 {
        fill: #ff2727;
      }
    </style>
  </defs>
  <g id="组_366" data-name="组 366" transform="translate(44 -56.89)">
    <path id="路径_3645" data-name="路径 3645" class="cls-1" d="M-28.625,175.343l-.875.875a8.4,8.4,0,0,1,3,6.375,8.109,8.109,0,0,1-8.125,8.125,8.109,8.109,0,0,1-8.125-8.125,8.11,8.11,0,0,1,3.25-6.5l-.875-.875A9.062,9.062,0,0,0-44,182.593a9.443,9.443,0,0,0,9.375,9.375,9.443,9.443,0,0,0,9.375-9.375,9.744,9.744,0,0,0-3.375-7.25Zm0,0" transform="translate(0 -115.078)"/>
    <rect id="矩形_161" data-name="矩形 161" class="cls-1" width="1.25" height="11.25" transform="translate(-35.25 56.89)"/>
  </g>
</svg>
