<svg xmlns="http://www.w3.org/2000/svg" xmlns:xlink="http://www.w3.org/1999/xlink" width="58" height="58" viewBox="0 0 58 58">
  <defs>
    <style>
      .cls-1 {
        fill: #297aff;
      }

      .cls-2 {
        fill: #fff;
      }

      .cls-3 {
        filter: url(#矩形_74);
      }
    </style>
    <filter id="矩形_74" x="0" y="0" width="58" height="58" filterUnits="userSpaceOnUse">
      <feOffset dy="3" input="SourceAlpha"/>
      <feGaussianBlur stdDeviation="3" result="blur"/>
      <feFlood flood-opacity="0.102"/>
      <feComposite operator="in" in2="blur"/>
      <feComposite in="SourceGraphic"/>
    </filter>
  </defs>
  <g id="组_18" data-name="组 18" transform="translate(-184 -483)">
    <g class="cls-3" transform="matrix(1, 0, 0, 1, 184, 483)">
      <rect id="矩形_74-2" data-name="矩形 74" class="cls-1" width="40" height="40" rx="6" transform="translate(9 6)"/>
    </g>
    <path id="male" class="cls-2" d="M29.746,9.529V4.045L32.391,6.69a.98.98,0,0,0,1.29,0,.98.98,0,0,0,0-1.29L29.488,1.206c-.129-.065-.194-.129-.323-.194a.836.836,0,0,0-.645,0,.887.887,0,0,0-.258.194L24,5.4a.98.98,0,0,0,0,1.29.98.98,0,0,0,1.29,0L27.94,4.045V9.464a8.031,8.031,0,1,0,1.807.064Zm-.9,13.677a6,6,0,1,1,6-6,6.03,6.03,0,0,1-6,6Zm0,0" transform="translate(184 495.598)"/>
  </g>
</svg>
