<svg xmlns="http://www.w3.org/2000/svg" xmlns:xlink="http://www.w3.org/1999/xlink" width="60" height="60" viewBox="0 0 60 60">
  <defs>
    <clipPath id="clip-path">
      <rect id="矩形_72" data-name="矩形 72" width="38.244" height="30" fill="#666"/>
    </clipPath>
  </defs>
  <g id="icon" transform="translate(-32.74)">
    <rect id="矩形_71" data-name="矩形 71" width="60" height="60" rx="6" transform="translate(32.74)" fill="#fbfbfb"/>
    <g id="ID" transform="translate(43.74 15)">
      <g id="组_16" data-name="组 16" transform="translate(0 0)">
        <g id="组_15" data-name="组 15" clip-path="url(#clip-path)">
          <path id="路径_8" data-name="路径 8" d="M-307.12-230v30h38.229v-30Zm35.143,26.914h-32.057v-23.828h32.057Zm0,0" transform="translate(307.114 230)" fill="#666"/>
        </g>
      </g>
      <path id="路径_9" data-name="路径 9" d="M-189.633-95.37a4.914,4.914,0,0,0-4.772-5.028,4.914,4.914,0,0,0-4.772,5.028,4.914,4.914,0,0,0,4.772,5.028,4.914,4.914,0,0,0,4.772-5.028Zm-4.772,1.613a1.578,1.578,0,0,1-1.531-1.613,1.578,1.578,0,0,1,1.531-1.613,1.578,1.578,0,0,1,1.531,1.613,1.578,1.578,0,0,1-1.531,1.613Zm0,6.831a3.985,3.985,0,0,1,3.872,4.08h3.241a7.321,7.321,0,0,0-7.113-7.5,7.321,7.321,0,0,0-7.113,7.5h3.241a3.985,3.985,0,0,1,3.872-4.08Zm8.914-2.752h12.245v3.416h-12.245Zm6.033-7.021h6.122v3.416h-6.122Zm0,0" transform="translate(206.492 106.509)" fill="#666"/>
    </g>
  </g>
</svg>
